<?xml version="1.0" standalone="no"?><!DOCTYPE svg PUBLIC "-//W3C//DTD SVG 1.1//EN" "http://www.w3.org/Graphics/SVG/1.1/DTD/svg11.dtd"><svg xmlns:xlink="http://www.w3.org/1999/xlink" version="1.1" class="highcharts-root" style="font-family:&quot;lucida grande&quot;, &quot;lucida sans unicode&quot;, arial, helvetica, sans-serif;font-size:12px;" xmlns="http://www.w3.org/2000/svg" width="600" height="400" viewBox="0 0 600 400"><desc>Created with Highcharts 5.0.14</desc><defs><clipPath id="highcharts-i70wv3x-6"><rect x="0" y="0" width="580" height="326" fill="none"></rect></clipPath></defs><rect fill="#ffffff" class="highcharts-background" stroke="#335cad" stroke-width="1" x="0.5" y="0.5" width="598" height="398" rx="0" ry="0"></rect><rect fill="none" class="highcharts-plot-background" x="10" y="59" width="580" height="326"></rect><rect fill="none" class="highcharts-plot-border" x="10" y="59" width="580" height="326"></rect><g class="highcharts-series-group"><g class="highcharts-series highcharts-series-0 highcharts-pie-series highcharts-color-undefined " transform="translate(10,59) scale(1 1)"><path fill="#7cb5ec" d="M 312.97505003254736 41.50000254081992 A 122.5 122.5 0 0 1 399.04684228963606 251.19054382203666 L 313 164 A 0 0 0 0 0 313 164 Z" transform="translate(0,0)" stroke="#ffffff" stroke-width="1" stroke-linejoin="round" class="highcharts-point highcharts-color-0"></path><path fill="#434348" d="M 398.95960873692826 251.27654705471684 A 122.5 122.5 0 0 1 250.73387547330836 269.49492753884675 L 313 164 A 0 0 0 0 0 313 164 Z" transform="translate(0,0)" stroke="#ffffff" stroke-width="1" stroke-linejoin="round" class="highcharts-point highcharts-color-1"></path><path fill="#90ed7d" d="M 250.62841169641166 269.43260867723836 A 122.5 122.5 0 0 1 194.29028764258237 133.76336341424246 L 313 164 A 0 0 0 0 0 313 164 Z" transform="translate(0,0)" stroke="#ffffff" stroke-width="1" stroke-linejoin="round" class="highcharts-point highcharts-color-2"></path><path fill="#f7a35c" d="M 194.32058362897993 133.64466883998705 A 122.5 122.5 0 0 1 202.08496103874538 111.99899873826112 L 313 164 A 0 0 0 0 0 313 164 Z" transform="translate(0,0)" stroke="#ffffff" stroke-width="1" stroke-linejoin="round" class="highcharts-point highcharts-color-3"></path><path fill="#8085e9" d="M 202.13701748885512 111.8881097182842 A 122.5 122.5 0 0 1 213.90181363781454 91.98750483613587 L 313 164 A 0 0 0 0 0 313 164 Z" transform="translate(0,0)" stroke="#ffffff" stroke-width="1" stroke-linejoin="round" class="highcharts-point highcharts-color-4"></path><path fill="#f15c80" d="M 213.97387567006535 91.88844267253462 A 122.5 122.5 0 0 1 228.57259085308056 75.24042257458261 L 313 164 A 0 0 0 0 0 313 164 Z" transform="translate(0,0)" stroke="#ffffff" stroke-width="1" stroke-linejoin="round" class="highcharts-point highcharts-color-5"></path><path fill="#e4d354" d="M 228.66139262941374 75.15603955929195 A 122.5 122.5 0 0 1 238.04918792147248 67.10507872561507 L 313 164 A 0 0 0 0 0 313 164 Z" transform="translate(0,0)" stroke="#ffffff" stroke-width="1" stroke-linejoin="round" class="highcharts-point highcharts-color-6"></path><path fill="#2b908f" d="M 238.14612030200067 67.03017637348492 A 122.5 122.5 0 0 1 246.44306403575143 61.15825616486799 L 313 164 A 0 0 0 0 0 313 164 Z" transform="translate(0,0)" stroke="#ffffff" stroke-width="1" stroke-linejoin="round" class="highcharts-point highcharts-color-7"></path><path fill="#f45b5b" d="M 246.5459390409115 61.091750660864165 A 122.5 122.5 0 0 1 255.09027866339704 56.052261836030155 L 313 164 A 0 0 0 0 0 313 164 Z" transform="translate(0,0)" stroke="#ffffff" stroke-width="1" stroke-linejoin="round" class="highcharts-point highcharts-color-8"></path><path fill="#91e8e1" d="M 255.198255338428 55.99440609820972 A 122.5 122.5 0 0 1 261.7787154021652 52.72273365980088 L 313 164 A 0 0 0 0 0 313 164 Z" transform="translate(0,0)" stroke="#ffffff" stroke-width="1" stroke-linejoin="round" class="highcharts-point highcharts-color-9"></path><path fill="#7cb5ec" d="M 261.8900182605994 52.67156802236843 A 122.5 122.5 0 0 1 312.82984995758625 41.500118167554675 L 313 164 A 0 0 0 0 0 313 164 Z" transform="translate(0,0)" stroke="#ffffff" stroke-width="1" stroke-linejoin="round" class="highcharts-point highcharts-color-0"></path></g><g class="highcharts-markers highcharts-series-0 highcharts-pie-series highcharts-color-undefined " transform="translate(10,59) scale(1 1)"></g></g><text x="300" text-anchor="middle" class="highcharts-title" style="color:#333333;font-size:18px;fill:#333333;" y="24"><tspan>Core hour usage per software for Kebnekaise @ HPC2N</tspan></text><text x="300" text-anchor="middle" class="highcharts-subtitle" style="color:#666666;fill:#666666;" y="44"><tspan>Period: 2020-01-01 - 2020-12-31</tspan></text><g class="highcharts-data-labels highcharts-series-0 highcharts-pie-series highcharts-color-undefined " visibility="visible" transform="translate(10,59) scale(1 1)"><path fill="none" class="highcharts-data-label-connector highcharts-color-0" stroke="#000000" stroke-width="1" d="M 458.6199302631685 106.19502372184162 C 453.6199302631685 106.19502372184162 436.9631516091552 113.0179061677882 431.4108920578174 115.29220031643705 L 425.85863250647964 117.5664944650859"></path><path fill="none" class="highcharts-data-label-connector highcharts-color-1" stroke="#000000" stroke-width="1" d="M 336.0188585201338 315.3714037693754 C 331.0188585201338 315.3714037693754 328.8330260390685 297.5046151277442 328.10441521204683 291.54901891386714 L 327.37580438502516 285.59342269999007"></path><path fill="none" class="highcharts-data-label-connector highcharts-color-2" stroke="#000000" stroke-width="1" d="M 166.63882763907864 222.43269736292177 C 171.63882763907864 222.43269736292177 188.26506437676116 215.53572324795397 193.807143289322 213.23673187629802 L 199.34922220188284 210.93774050464208"></path><path fill="none" class="highcharts-data-label-connector highcharts-color-3" stroke="#000000" stroke-width="1" d="M 155.00737722761798 165.5 C 160.00737722761798 165.5 185.92533797072383 118.51258490335466 191.5717912954499 120.54176327197825 L 197.218244620176 122.57094164060184"></path><path fill="none" class="highcharts-data-label-connector highcharts-color-4" stroke="#000000" stroke-width="1" d="M 156.3841504010913 143.5 C 161.3841504010913 143.5 196.74912681575137 95.50193172735467 201.91273454144275 98.55760763542807 L 207.07634226713412 101.61328354350147"></path><path fill="none" class="highcharts-data-label-connector highcharts-color-5" stroke="#000000" stroke-width="1" d="M 161.0418148412319 121.5 C 166.0418148412319 121.5 211.3857280608579 75.30865876413179 215.89640190200922 79.26514982298093 L 220.40707574316053 83.22164088183007"></path><path fill="none" class="highcharts-data-label-connector highcharts-color-6" stroke="#000000" stroke-width="1" d="M 169.31172263900243 99.5 C 174.31172263900243 99.5 224.99972231897254 61.85328489988976 228.90308043113734 66.41001568502479 L 232.80643854330214 70.96674647015982"></path><path fill="none" class="highcharts-data-label-connector highcharts-color-7" stroke="#000000" stroke-width="1" d="M 181.90541412942991 77.5 C 186.90541412942991 77.5 234.87273117900872 54.1625877244299 238.33565766916448 59.062397937466486 L 241.79858415932023 63.96220815050307"></path><path fill="none" class="highcharts-data-label-connector highcharts-color-8" stroke="#000000" stroke-width="1" d="M 200.3365734030495 55.5 C 205.3365734030495 55.5 244.23039786747236 48.114231138304206 247.2758819774736 53.28385651503413 L 250.32136608747484 58.453481891764056"></path><path fill="none" class="highcharts-data-label-connector highcharts-color-9" stroke="#000000" stroke-width="1" d="M 228.59499382168454 33.5 C 233.59499382168454 33.5 252.68590068758573 43.53206433475901 255.35418764576033 48.906098639528125 L 258.02247460393494 54.280132944297236"></path><path fill="none" class="highcharts-data-label-connector highcharts-color-0" stroke="#000000" stroke-width="1" d="M 274.9273617022359 11.5 C 279.9273617022359 11.5 283.77200097672596 32.603835397989 285.05354740155605 38.46537433934265 L 286.3350938263861 44.3269132806963"></path><g class="highcharts-label highcharts-data-label highcharts-data-label-color-0 " style="cursor:pointer;" transform="translate(464,96)"><text x="5" style="font-size:11px;font-weight:bold;color:#000000;fill:#000000;" y="16"><tspan style="font-weight: bold;" x="5" y="16" class="highcharts-text-outline" fill="#FFFFFF" stroke="#FFFFFF" stroke-width="2px" stroke-linejoin="round">gromacs</tspan><tspan dx="0" class="highcharts-text-outline" fill="#FFFFFF" stroke="#FFFFFF" stroke-width="2px" stroke-linejoin="round" style="">: 37.6 %</tspan><tspan style="font-weight:bold" x="5" y="16">gromacs</tspan><tspan dx="0">: 37.6 %</tspan></text></g><g class="highcharts-label highcharts-data-label highcharts-data-label-color-1 " style="cursor:pointer;" transform="translate(341,305)"><text x="5" style="font-size:11px;font-weight:bold;color:#000000;fill:#000000;" y="16"><tspan style="font-weight: bold;" x="5" y="16" class="highcharts-text-outline" fill="#FFFFFF" stroke="#FFFFFF" stroke-width="2px" stroke-linejoin="round">unclassified</tspan><tspan dx="0" class="highcharts-text-outline" fill="#FFFFFF" stroke="#FFFFFF" stroke-width="2px" stroke-linejoin="round" style="">: 20.9 %</tspan><tspan style="font-weight:bold" x="5" y="16">unclassified</tspan><tspan dx="0">: 20.9 %</tspan></text></g><g class="highcharts-label highcharts-data-label highcharts-data-label-color-2 " style="cursor:pointer;" transform="translate(83,212)"><text x="5" style="font-size:11px;font-weight:bold;color:#000000;fill:#000000;" y="16"><tspan style="font-weight: bold;" x="5" y="16" class="highcharts-text-outline" fill="#FFFFFF" stroke="#FFFFFF" stroke-width="2px" stroke-linejoin="round">vasp</tspan><tspan dx="0" class="highcharts-text-outline" fill="#FFFFFF" stroke="#FFFFFF" stroke-width="2px" stroke-linejoin="round" style="">: 20.5 %</tspan><tspan style="font-weight:bold" x="5" y="16">vasp</tspan><tspan dx="0">: 20.5 %</tspan></text></g><g class="highcharts-label highcharts-data-label highcharts-data-label-color-3 " style="cursor:pointer;" transform="translate(8,156)"><text x="5" style="font-size:11px;font-weight:bold;color:#000000;fill:#000000;" y="16"><tspan style="font-weight: bold;" x="5" y="16" class="highcharts-text-outline" fill="#FFFFFF" stroke="#FFFFFF" stroke-width="2px" stroke-linejoin="round">project_nobackup</tspan><tspan dx="0" class="highcharts-text-outline" fill="#FFFFFF" stroke="#FFFFFF" stroke-width="2px" stroke-linejoin="round" style="">: 3.0 %</tspan><tspan style="font-weight:bold" x="5" y="16">project_nobackup</tspan><tspan dx="0">: 3.0 %</tspan></text></g><g class="highcharts-label highcharts-data-label highcharts-data-label-color-4 " style="cursor:pointer;" transform="translate(71,134)"><text x="5" style="font-size:11px;font-weight:bold;color:#000000;fill:#000000;" y="16"><tspan style="font-weight: bold;" x="5" y="16" class="highcharts-text-outline" fill="#FFFFFF" stroke="#FFFFFF" stroke-width="2px" stroke-linejoin="round">amber</tspan><tspan dx="0" class="highcharts-text-outline" fill="#FFFFFF" stroke="#FFFFFF" stroke-width="2px" stroke-linejoin="round" style="">: 3.0 %</tspan><tspan style="font-weight:bold" x="5" y="16">amber</tspan><tspan dx="0">: 3.0 %</tspan></text></g><g class="highcharts-label highcharts-data-label highcharts-data-label-color-5 " style="cursor:pointer;" transform="translate(61,112)"><text x="5" style="font-size:11px;font-weight:bold;color:#000000;fill:#000000;" y="16"><tspan style="font-weight: bold;" x="5" y="16" class="highcharts-text-outline" fill="#FFFFFF" stroke="#FFFFFF" stroke-width="2px" stroke-linejoin="round">gaussian</tspan><tspan dx="0" class="highcharts-text-outline" fill="#FFFFFF" stroke="#FFFFFF" stroke-width="2px" stroke-linejoin="round" style="">: 2.9 %</tspan><tspan style="font-weight:bold" x="5" y="16">gaussian</tspan><tspan dx="0">: 2.9 %</tspan></text></g><g class="highcharts-label highcharts-data-label highcharts-data-label-color-6 " style="cursor:pointer;" transform="translate(92,90)"><text x="5" style="font-size:11px;font-weight:bold;color:#000000;fill:#000000;" y="16"><tspan style="font-weight: bold;" x="5" y="16" class="highcharts-text-outline" fill="#FFFFFF" stroke="#FFFFFF" stroke-width="2px" stroke-linejoin="round">cp2k</tspan><tspan dx="0" class="highcharts-text-outline" fill="#FFFFFF" stroke="#FFFFFF" stroke-width="2px" stroke-linejoin="round" style="">: 1.6 %</tspan><tspan style="font-weight:bold" x="5" y="16">cp2k</tspan><tspan dx="0">: 1.6 %</tspan></text></g><g class="highcharts-label highcharts-data-label highcharts-data-label-color-7 " style="cursor:pointer;" transform="translate(108,68)"><text x="5" style="font-size:11px;font-weight:bold;color:#000000;fill:#000000;" y="16"><tspan style="font-weight: bold;" x="5" y="16" class="highcharts-text-outline" fill="#FFFFFF" stroke="#FFFFFF" stroke-width="2px" stroke-linejoin="round">psi4</tspan><tspan dx="0" class="highcharts-text-outline" fill="#FFFFFF" stroke="#FFFFFF" stroke-width="2px" stroke-linejoin="round" style="">: 1.3 %</tspan><tspan style="font-weight:bold" x="5" y="16">psi4</tspan><tspan dx="0">: 1.3 %</tspan></text></g><g class="highcharts-label highcharts-data-label highcharts-data-label-color-8 " style="cursor:pointer;" transform="translate(117,46)"><text x="5" style="font-size:11px;font-weight:bold;color:#000000;fill:#000000;" y="16"><tspan style="font-weight: bold;" x="5" y="16" class="highcharts-text-outline" fill="#FFFFFF" stroke="#FFFFFF" stroke-width="2px" stroke-linejoin="round">siesta</tspan><tspan dx="0" class="highcharts-text-outline" fill="#FFFFFF" stroke="#FFFFFF" stroke-width="2px" stroke-linejoin="round" style="">: 1.3 %</tspan><tspan style="font-weight:bold" x="5" y="16">siesta</tspan><tspan dx="0">: 1.3 %</tspan></text></g><g class="highcharts-label highcharts-data-label highcharts-data-label-color-9 " style="cursor:pointer;" transform="translate(134,24)"><text x="5" style="font-size:11px;font-weight:bold;color:#000000;fill:#000000;" y="16"><tspan style="font-weight: bold;" x="5" y="16" class="highcharts-text-outline" fill="#FFFFFF" stroke="#FFFFFF" stroke-width="2px" stroke-linejoin="round">qsource</tspan><tspan dx="0" class="highcharts-text-outline" fill="#FFFFFF" stroke="#FFFFFF" stroke-width="2px" stroke-linejoin="round" style="">: 1.0 %</tspan><tspan style="font-weight:bold" x="5" y="16">qsource</tspan><tspan dx="0">: 1.0 %</tspan></text></g><g class="highcharts-label highcharts-data-label highcharts-data-label-color-0 " style="cursor:pointer;" transform="translate(195,2)"><text x="5" style="font-size:11px;font-weight:bold;color:#000000;fill:#000000;" y="16"><tspan style="font-style: italic;" x="5" y="16" class="highcharts-text-outline" fill="#FFFFFF" stroke="#FFFFFF" stroke-width="2px" stroke-linejoin="round">other</tspan><tspan dx="0" class="highcharts-text-outline" fill="#FFFFFF" stroke="#FFFFFF" stroke-width="2px" stroke-linejoin="round" style="">: 6.9 %</tspan><tspan style="font-style:italic" x="5" y="16">other</tspan><tspan dx="0">: 6.9 %</tspan></text></g></g><g class="highcharts-legend"><rect fill="none" class="highcharts-legend-box" rx="0" ry="0" x="0" y="0" width="8" height="8" visibility="hidden"></rect><g><g></g></g></g><text x="590" class="highcharts-credits" text-anchor="end" style="cursor:pointer;color:#999999;font-size:9px;fill:#999999;" y="395">Highcharts.com</text></svg>