<?xml version="1.0" encoding="UTF-8"?>
<svg id="Layer_1" data-name="Layer 1" xmlns="http://www.w3.org/2000/svg" version="1.1" viewBox="0 0 1260.9 901.3">
  <defs>
    <style>
      .cls-1, .cls-2 {
        stroke-width: 0px;
      }

      .cls-1, .cls-3, .cls-4 {
        fill: #000;
      }

      .cls-5, .cls-3, .cls-4 {
        isolation: isolate;
      }

      .cls-6 {
        fill: #fff;
      }

      .cls-6, .cls-7 {
        stroke: #000;
        stroke-miterlimit: 10;
        stroke-width: 3px;
      }

      .cls-2, .cls-7 {
        fill: none;
      }

      .cls-3 {
        font-size: 26px;
      }

      .cls-3, .cls-4 {
        font-family: ArialMT, Arial;
      }

      .cls-4 {
        font-size: 21px;
      }
    </style>
  </defs>
  <ellipse class="cls-6" cx="638.3" cy="93.7" rx="124.5" ry="74"/>
  <line class="cls-7" x1="513.8" y1="88.1" x2="274" y2="88.1"/>
  <g>
    <line class="cls-7" x1="274" y1="162.4" x2="274" y2="88.1"/>
    <path class="cls-1" d="M274,175.1c2.2-6,6-13.4,10-17.9l-10,3.6-10-3.6c4,4.6,7.8,12,10,17.9Z"/>
  </g>
  <rect class="cls-7" x="174" y="175.1" width="200" height="139"/>
  <g>
    <line class="cls-7" x1="274" y1="376.4" x2="274" y2="314.1"/>
    <path class="cls-1" d="M274,389.1c2.2-6,6-13.4,10-18l-10,3.6-10-3.6c4,4.6,7.8,12,10,18Z"/>
  </g>
  <line class="cls-7" x1="969.3" y1="88.1" x2="762.8" y2="88.1"/>
  <rect class="cls-7" x="20" y="632.6" width="200" height="136.9"/>
  <ellipse class="cls-6" cx="697.4" cy="783.4" rx="124.5" ry="74"/>
  <g class="cls-5">
    <text class="cls-3" transform="translate(557.4 73.4)"><tspan x="0" y="0">Do I have issues </tspan></text>
    <text class="cls-3" transform="translate(557.4 104.6)"><tspan x="0" y="0">with my current </tspan></text>
    <text class="cls-3" transform="translate(557.4 135.8)"><tspan x="0" y="0">workflow?</tspan></text>
  </g>
  <rect class="cls-7" x="174" y="389.1" width="200" height="112"/>
  <g>
    <path class="cls-1" d="M209.2,187.6l-2.5,3.2h0c0,0,3.9-.5,3.9-.5v1.8l-3.9-.5h0c0,0,2.5,3.2,2.5,3.2l-1.6.9-1.6-3.6h0l-1.7,3.7-1.5-.9,2.5-3.2h0c0,0-3.9.4-3.9.4v-1.8l3.8.5h0c0,0-2.4-3.2-2.4-3.2l1.6-.9,1.6,3.6h0l1.6-3.6,1.6.9h0Z"/>
    <path class="cls-1" d="M220.7,187.2c1.1-.2,2.5-.3,4.3-.3s3.9.5,4.9,1.5c1,.8,1.5,2.1,1.5,3.7s-.5,2.8-1.4,3.7c-1.2,1.3-3.1,1.9-5.4,1.9s-1.3,0-1.8-.2v7h-2.3v-17.3h0ZM222.9,195.7c.5.1,1.1.2,1.9.2,2.7,0,4.4-1.3,4.4-3.7s-1.6-3.4-4.1-3.4-1.7,0-2.1.2v6.8h0Z"/>
    <path class="cls-1" d="M234,195.9c0-1.5,0-2.8-.1-3.9h2v2.5h.2c.6-1.7,1.9-2.8,3.5-2.8s.4,0,.6,0v2.2c-.2,0-.5,0-.8,0-1.6,0-2.8,1.2-3.1,2.9,0,.3-.1.7-.1,1.1v6.7h-2.3v-8.7h0Z"/>
    <path class="cls-1" d="M253.6,198.2c0,4.6-3.2,6.7-6.3,6.7s-6-2.5-6-6.5,2.8-6.7,6.2-6.7,6.1,2.6,6.1,6.5ZM243.6,198.3c0,2.8,1.6,4.8,3.8,4.8s3.8-2.1,3.8-4.9-1.1-4.8-3.8-4.8-3.9,2.5-3.9,4.9h0Z"/>
    <path class="cls-1" d="M256.8,204.6v-10.8h-1.8v-1.7h1.8v-.7c0-3.3,2-5.5,5.5-5.5s2.5.4,3.2.8l-.6,1.7c-.5-.4-1.5-.7-2.6-.7-2.4,0-3.1,1.7-3.1,3.7v.6h7.3v12.6h-2.3v-10.8h-5v10.8h-2.3Z"/>
    <path class="cls-1" d="M270.1,186.1h2.3v18.5h-2.3v-18.5Z"/>
    <path class="cls-1" d="M277.5,198.7c0,3.1,2,4.4,4.3,4.4s2.6-.3,3.5-.6l.4,1.6c-.8.4-2.2.8-4.2.8-3.9,0-6.2-2.6-6.2-6.3s2.2-6.8,5.9-6.8,5.2,3.6,5.2,5.9,0,.8,0,1.1h-8.8,0ZM284.2,197c0-1.5-.6-3.7-3.2-3.7s-3.3,2.1-3.5,3.7h6.7Z"/>
    <path class="cls-1" d="M297.3,188.4c0,.8-.5,1.4-1.5,1.4s-1.4-.6-1.4-1.4.6-1.4,1.4-1.4,1.4.6,1.4,1.4h0ZM294.8,204.6v-12.6h2.3v12.6h-2.3Z"/>
    <path class="cls-1" d="M303.6,188.4v3.6h3.3v1.7h-3.3v6.8c0,1.6.4,2.4,1.7,2.4s1,0,1.3-.2v1.7c-.3.2-1,.3-1.9.3s-1.9-.3-2.5-1c-.6-.7-.9-1.8-.9-3.3v-6.9h-2v-1.7h2v-3l2.2-.6h0Z"/>
    <path class="cls-1" d="M209.2,218.8l-2.5,3.2h0c0,0,3.9-.5,3.9-.5v1.8l-3.9-.5h0c0,0,2.5,3.2,2.5,3.2l-1.6.9-1.6-3.6h0l-1.7,3.7-1.5-.9,2.5-3.2h0c0,0-3.9.4-3.9.4v-1.8l3.8.5h0c0,0-2.4-3.2-2.4-3.2l1.6-.9,1.6,3.6h0l1.6-3.6,1.6.9h0Z"/>
    <path class="cls-1" d="M224.5,235.8l-5.7-17.5h2.4l2.7,8.6c.8,2.4,1.4,4.5,1.9,6.6h0c.5-2,1.2-4.2,2-6.5l3-8.7h2.4l-6.3,17.5h-2.5,0Z"/>
    <path class="cls-1" d="M235.5,229.9c0,3.1,2,4.4,4.3,4.4s2.6-.3,3.5-.6l.4,1.6c-.8.4-2.2.8-4.2.8-3.9,0-6.2-2.6-6.2-6.3s2.2-6.8,5.9-6.8,5.2,3.6,5.2,5.9,0,.8,0,1.1h-8.8,0ZM242.2,228.2c0-1.5-.6-3.7-3.2-3.7s-3.3,2.1-3.5,3.7h6.7Z"/>
    <path class="cls-1" d="M256.2,235.3c-.6.3-1.9.7-3.6.7-3.8,0-6.3-2.6-6.3-6.4s2.6-6.7,6.8-6.7,2.6.3,3.2.6l-.5,1.8c-.6-.3-1.4-.6-2.6-.6-2.9,0-4.4,2.1-4.4,4.8s1.9,4.7,4.4,4.7,2.2-.3,2.8-.6l.4,1.7h0Z"/>
    <path class="cls-1" d="M262,219.6v3.6h3.3v1.7h-3.3v6.8c0,1.6.4,2.4,1.7,2.4s1,0,1.3-.2v1.7c-.3.2-1,.3-1.9.3s-1.9-.3-2.5-1c-.6-.7-.9-1.8-.9-3.3v-6.9h-2v-1.7h2v-3l2.2-.6h0Z"/>
    <path class="cls-1" d="M279.1,229.4c0,4.6-3.2,6.7-6.3,6.7s-6-2.5-6-6.5,2.8-6.7,6.2-6.7,6.1,2.6,6.1,6.5ZM269.1,229.5c0,2.8,1.6,4.8,3.8,4.8s3.8-2.1,3.8-4.9-1.1-4.8-3.8-4.8-3.9,2.5-3.9,4.9h0Z"/>
    <path class="cls-1" d="M282,227.1c0-1.5,0-2.8-.1-3.9h2v2.5h.2c.6-1.7,2-2.8,3.5-2.8s.4,0,.6,0v2.2c-.2,0-.5,0-.8,0-1.6,0-2.8,1.2-3.1,2.9,0,.3-.1.7-.1,1.1v6.7h-2.3v-8.7h0Z"/>
    <path class="cls-1" d="M293.1,219.6c0,.8-.5,1.4-1.5,1.4s-1.4-.6-1.4-1.4.6-1.4,1.4-1.4,1.4.6,1.4,1.4h0ZM290.6,235.8v-12.6h2.3v12.6h-2.3Z"/>
    <path class="cls-1" d="M295.2,234.4l5.7-7.4c.5-.7,1.1-1.3,1.6-1.9h0c0,0-6.8,0-6.8,0v-1.9h9.6v1.4s-5.6,7.3-5.6,7.3c-.5.7-1,1.3-1.6,2h0c0,0,7.4,0,7.4,0v1.8h-10.2v-1.3h0Z"/>
    <path class="cls-1" d="M308.9,229.9c0,3.1,2,4.4,4.3,4.4s2.6-.3,3.5-.6l.4,1.6c-.8.4-2.2.8-4.2.8-3.9,0-6.2-2.6-6.2-6.3s2.2-6.8,5.9-6.8,5.2,3.6,5.2,5.9,0,.8,0,1.1h-8.8,0ZM315.6,228.2c0-1.5-.6-3.7-3.2-3.7s-3.3,2.1-3.5,3.7h6.7Z"/>
    <path class="cls-1" d="M328.7,219.6c0,.8-.5,1.4-1.5,1.4s-1.4-.6-1.4-1.4.6-1.4,1.4-1.4,1.4.6,1.4,1.4h0ZM326.1,235.8v-12.6h2.3v12.6h-2.3Z"/>
    <path class="cls-1" d="M335,219.6v3.6h3.3v1.7h-3.3v6.8c0,1.6.4,2.4,1.7,2.4s1,0,1.3-.2v1.7c-.3.2-1,.3-1.9.3s-1.9-.3-2.5-1c-.6-.7-.9-1.8-.9-3.3v-6.9h-2v-1.7h2v-3l2.2-.6h0Z"/>
    <path class="cls-1" d="M209.2,250l-2.5,3.2h0c0,0,3.9-.5,3.9-.5v1.8l-3.9-.5h0c0,0,2.5,3.2,2.5,3.2l-1.6.9-1.6-3.6h0l-1.7,3.7-1.5-.9,2.5-3.2h0c0,0-3.9.4-3.9.4v-1.8l3.8.5h0c0,0-2.4-3.2-2.4-3.2l1.6-.9,1.6,3.6h0l1.6-3.6,1.6.9h0Z"/>
    <path class="cls-1" d="M222.9,249.4v10.4c0,3.9,1.7,5.6,4.1,5.6s4.3-1.7,4.3-5.6v-10.4h2.3v10.2c0,5.4-2.8,7.6-6.6,7.6s-6.3-2-6.3-7.5v-10.3h2.3Z"/>
    <path class="cls-1" d="M236.9,264.6c.7.4,1.9.9,3,.9,1.7,0,2.4-.8,2.4-1.9s-.6-1.7-2.3-2.3c-2.3-.8-3.3-2-3.3-3.6s1.6-3.7,4.3-3.7,2.4.4,3.1.8l-.6,1.7c-.5-.3-1.4-.7-2.6-.7s-2.1.8-2.1,1.7.8,1.5,2.4,2.1c2.2.8,3.3,1.9,3.3,3.8s-1.7,3.8-4.7,3.8-2.6-.3-3.5-.9l.6-1.7h0Z"/>
    <path class="cls-1" d="M248.8,261.1c0,3.1,2,4.4,4.3,4.4s2.6-.3,3.5-.6l.4,1.6c-.8.4-2.2.8-4.2.8-3.9,0-6.2-2.5-6.2-6.3s2.2-6.8,5.9-6.8,5.2,3.6,5.2,5.9,0,.8,0,1.1h-8.8,0ZM255.5,259.4c0-1.5-.6-3.7-3.2-3.7s-3.3,2.1-3.5,3.7h6.7Z"/>
    <path class="cls-1" d="M266,267c0-.9.1-2.1.1-3.2v-15.2h2.3v7.9h0c.8-1.4,2.3-2.3,4.3-2.3,3.1,0,5.3,2.6,5.3,6.4,0,4.5-2.8,6.7-5.6,6.7s-3.3-.7-4.2-2.4h0v2.1h-2.1,0ZM268.4,261.9c0,.3,0,.6.1.8.4,1.6,1.8,2.7,3.4,2.7,2.4,0,3.8-2,3.8-4.8s-1.3-4.7-3.7-4.7-3,1.1-3.5,2.8c0,.3-.1.6-.1.9v2.3Z"/>
    <path class="cls-1" d="M291.4,263.5c0,1.3,0,2.4.1,3.4h-2v-2h-.2c-.6,1-1.9,2.3-4.2,2.3s-4.3-1.1-4.3-5.5v-7.4h2.3v7c0,2.4.7,4,2.8,4s2.6-1.1,3-2.1c.1-.3.2-.8.2-1.2v-7.7h2.3v9.1h0Z"/>
    <path class="cls-1" d="M297.8,250.8c0,.8-.5,1.4-1.5,1.4s-1.4-.6-1.4-1.4.6-1.4,1.4-1.4,1.4.6,1.4,1.4h0ZM295.2,267v-12.6h2.3v12.6h-2.3Z"/>
    <path class="cls-1" d="M301.3,248.5h2.3v18.5h-2.3v-18.5h0Z"/>
    <path class="cls-1" d="M310.2,250.8v3.6h3.3v1.7h-3.3v6.8c0,1.6.4,2.4,1.7,2.4s1,0,1.3-.2v1.7c-.3.2-1,.3-1.9.3s-1.9-.3-2.5-1c-.6-.7-.9-1.8-.9-3.3v-6.9h-2v-1.7h2v-3l2.2-.6h0Z"/>
    <path class="cls-1" d="M321.2,259.1v1.7h-6.4v-1.7h6.4Z"/>
    <path class="cls-1" d="M326.4,250.8c0,.8-.5,1.4-1.5,1.4s-1.4-.6-1.4-1.4.6-1.4,1.4-1.4,1.4.6,1.4,1.4h0ZM323.9,267v-12.6h2.3v12.6h-2.3Z"/>
    <path class="cls-1" d="M330,257.8c0-1.3,0-2.4-.1-3.4h2v2.1h.2c.6-1.2,2.1-2.4,4.2-2.4s4.5,1,4.5,5.4v7.5h-2.3v-7.2c0-2-.8-3.7-2.9-3.7s-2.7,1.1-3.1,2.3c-.1.3-.2.7-.2,1.1v7.6h-2.3v-9.2h0Z"/>
    <path class="cls-1" d="M220.8,298.1v-10.8h-1.8v-1.7h1.8v-.6c0-1.8.4-3.4,1.5-4.4.9-.8,2-1.2,3.1-1.2s1.5.2,1.9.4l-.3,1.8c-.3-.2-.8-.3-1.5-.3-1.9,0-2.4,1.7-2.4,3.6v.7h3v1.7h-3v10.8h-2.3Z"/>
    <path class="cls-1" d="M238.7,294.7c0,1.3,0,2.4.1,3.4h-2v-2h-.2c-.6,1-1.9,2.3-4.2,2.3s-4.3-1.1-4.3-5.5v-7.4h2.3v7c0,2.4.7,4,2.8,4s2.6-1.1,3-2.1c.1-.3.2-.8.2-1.2v-7.7h2.3v9.1h0Z"/>
    <path class="cls-1" d="M242.5,289c0-1.3,0-2.4-.1-3.4h2v2.1h.2c.6-1.2,2.1-2.4,4.2-2.4s4.4,1,4.4,5.4v7.5h-2.3v-7.2c0-2-.8-3.7-2.9-3.7s-2.7,1.1-3.1,2.3c-.1.3-.2.7-.2,1.1v7.6h-2.3v-9.2Z"/>
    <path class="cls-1" d="M265.9,297.7c-.6.3-1.9.7-3.6.7-3.8,0-6.3-2.6-6.3-6.4s2.6-6.7,6.8-6.7,2.5.3,3.2.6l-.5,1.8c-.5-.3-1.4-.6-2.6-.6-2.9,0-4.5,2.1-4.5,4.8s1.9,4.7,4.4,4.7,2.2-.3,2.8-.6l.4,1.7h0Z"/>
    <path class="cls-1" d="M271.7,282v3.6h3.3v1.7h-3.3v6.8c0,1.6.4,2.4,1.7,2.4s1,0,1.3-.2v1.7c-.3.2-1,.3-1.9.3s-1.9-.3-2.5-1c-.6-.7-.9-1.8-.9-3.3v-6.9h-2v-1.7h2v-3l2.2-.6h0Z"/>
    <path class="cls-1" d="M280.1,282c0,.8-.5,1.4-1.5,1.4s-1.4-.6-1.4-1.4.6-1.4,1.4-1.4,1.4.6,1.4,1.4h0ZM277.5,298.1v-12.6h2.3v12.6h-2.3Z"/>
    <path class="cls-1" d="M295,291.8c0,4.6-3.2,6.7-6.3,6.7s-6-2.5-6-6.5,2.8-6.7,6.2-6.7,6.1,2.6,6.1,6.5ZM285,291.9c0,2.8,1.6,4.8,3.8,4.8s3.8-2,3.8-4.9-1.1-4.8-3.8-4.8-3.9,2.5-3.9,4.9h0Z"/>
    <path class="cls-1" d="M297.9,289c0-1.3,0-2.4-.1-3.4h2v2.1h.2c.6-1.2,2.1-2.4,4.2-2.4s4.5,1,4.5,5.4v7.5h-2.3v-7.2c0-2-.8-3.7-2.9-3.7s-2.7,1.1-3.1,2.3c-.1.3-.2.7-.2,1.1v7.6h-2.3v-9.2h0Z"/>
    <path class="cls-1" d="M312,295.8c.7.4,1.9.9,3,.9,1.7,0,2.4-.8,2.4-1.9s-.6-1.7-2.3-2.3c-2.3-.8-3.3-2-3.3-3.6s1.6-3.7,4.3-3.7,2.4.4,3.1.8l-.6,1.7c-.5-.3-1.4-.7-2.6-.7s-2.1.8-2.1,1.7.8,1.5,2.4,2.1c2.2.8,3.3,1.9,3.3,3.8s-1.7,3.8-4.7,3.8-2.6-.3-3.5-.9l.6-1.7h0Z"/>
  </g>
  <g>
    <path class="cls-1" d="M196.3,419.5c-.8.4-2.5.8-4.6.8-4.9,0-8.7-3.1-8.7-8.9s3.7-9.2,9.1-9.2,3.6.5,4.2.8l-.6,1.9c-.9-.4-2.1-.7-3.5-.7-4.1,0-6.8,2.6-6.8,7.2s2.5,7,6.7,7,2.8-.3,3.7-.7l.5,1.8h0Z"/>
    <path class="cls-1" d="M199.1,401.6h2.3v7.9h0c.4-.6.9-1.2,1.6-1.6.7-.4,1.5-.6,2.3-.6,1.7,0,4.4,1,4.4,5.4v7.5h-2.3v-7.2c0-2-.8-3.7-2.9-3.7s-2.6,1-3.1,2.3c-.1.3-.2.6-.2,1.1v7.6h-2.3v-18.5h0Z"/>
    <path class="cls-1" d="M220.5,420l-.2-1.6h0c-.7,1-2.1,1.9-3.9,1.9-2.6,0-3.9-1.8-3.9-3.6,0-3,2.7-4.7,7.6-4.7v-.3c0-1-.3-2.9-2.9-2.9s-2.4.4-3.3.9l-.5-1.5c1-.7,2.6-1.1,4.1-1.1,3.9,0,4.8,2.6,4.8,5.1v4.7c0,1.1,0,2.2.2,3h-2.1,0ZM220.1,413.6c-2.5,0-5.3.4-5.3,2.8s1,2.2,2.2,2.2,2.7-1,3-2.1c0-.2.1-.5.1-.7v-2.2h0Z"/>
    <path class="cls-1" d="M226,410.9c0-1.3,0-2.4-.1-3.4h2v2.1h.2c.6-1.2,2.1-2.4,4.2-2.4s4.4,1,4.4,5.4v7.5h-2.3v-7.2c0-2-.8-3.7-2.9-3.7s-2.7,1.1-3.1,2.3c-.1.3-.2.7-.2,1.1v7.6h-2.3v-9.2Z"/>
    <path class="cls-1" d="M251.3,407.5c0,.9-.1,1.9-.1,3.5v7.3c0,2.9-.6,4.6-1.8,5.8-1.2,1.1-3,1.5-4.6,1.5s-3.2-.4-4.2-1l.6-1.7c.8.5,2.1,1,3.7,1,2.3,0,4.1-1.2,4.1-4.4v-1.4h0c-.7,1.2-2.1,2.1-4,2.1-3.1,0-5.4-2.6-5.4-6.1s2.8-6.7,5.7-6.7,3.4,1.1,3.9,2.2h0v-1.9h2.1ZM248.9,412.4c0-.4,0-.7-.1-1-.4-1.3-1.5-2.4-3.2-2.4s-3.7,1.9-3.7,4.8,1.2,4.5,3.7,4.5,2.7-.9,3.2-2.3c.1-.4.2-.8.2-1.2v-2.3h0Z"/>
    <path class="cls-1" d="M256.3,414.2c0,3.1,2,4.4,4.3,4.4s2.6-.3,3.5-.6l.4,1.6c-.8.4-2.2.8-4.2.8-3.9,0-6.2-2.5-6.2-6.3s2.2-6.8,5.9-6.8,5.2,3.6,5.2,5.9,0,.8,0,1.1h-8.8,0ZM263,412.5c0-1.5-.6-3.7-3.2-3.7s-3.3,2.1-3.5,3.7h6.7Z"/>
    <path class="cls-1" d="M273.5,411.6c0-1.6,0-2.9-.1-4.1h2v2.2h.1c.9-1.5,2.4-2.4,4.5-2.4,3,0,5.3,2.6,5.3,6.4s-2.8,6.8-5.7,6.8-3.1-.7-3.9-2h0v6.8h-2.3v-13.6h0ZM275.8,414.9c0,.3,0,.6.1.9.4,1.6,1.8,2.7,3.4,2.7,2.4,0,3.8-2,3.8-4.9s-1.3-4.7-3.7-4.7-3,1.1-3.5,2.8c0,.3-.2.6-.2.9v2.2h0Z"/>
    <path class="cls-1" d="M288.3,411.4c0-1.5,0-2.8-.1-3.9h2v2.5h.2c.6-1.7,2-2.8,3.5-2.8s.4,0,.6,0v2.2c-.2,0-.5,0-.8,0-1.6,0-2.8,1.2-3.1,2.9,0,.3-.1.7-.1,1.1v6.7h-2.3v-8.7h0Z"/>
    <path class="cls-1" d="M308,413.6c0,4.6-3.2,6.7-6.3,6.7s-6-2.5-6-6.5,2.8-6.7,6.2-6.7,6.1,2.6,6.1,6.5ZM298,413.8c0,2.8,1.6,4.8,3.8,4.8s3.8-2,3.8-4.9-1.1-4.8-3.8-4.8-3.9,2.5-3.9,4.9h0Z"/>
    <path class="cls-1" d="M321.7,407.5c0,.9-.1,1.9-.1,3.5v7.3c0,2.9-.6,4.6-1.8,5.8-1.2,1.1-3,1.5-4.6,1.5s-3.2-.4-4.2-1l.6-1.7c.8.5,2.1,1,3.7,1,2.3,0,4.1-1.2,4.1-4.4v-1.4h0c-.7,1.2-2,2.1-4,2.1-3.1,0-5.4-2.6-5.4-6.1s2.8-6.7,5.7-6.7,3.4,1.1,3.9,2.2h0v-1.9h2.1,0ZM319.3,412.4c0-.4,0-.7-.1-1-.4-1.3-1.5-2.4-3.2-2.4s-3.7,1.9-3.7,4.8,1.2,4.5,3.7,4.5,2.7-.9,3.2-2.3c.1-.4.2-.8.2-1.2v-2.3h0Z"/>
    <path class="cls-1" d="M325.2,411.4c0-1.5,0-2.8-.1-3.9h2v2.5h.2c.6-1.7,2-2.8,3.5-2.8s.4,0,.6,0v2.2c-.2,0-.5,0-.8,0-1.6,0-2.8,1.2-3.1,2.9,0,.3-.1.7-.1,1.1v6.7h-2.3v-8.7h0Z"/>
    <path class="cls-1" d="M340.6,420l-.2-1.6h0c-.7,1-2,1.9-3.9,1.9-2.5,0-3.9-1.8-3.9-3.6,0-3,2.7-4.7,7.6-4.7v-.3c0-1-.3-2.9-2.9-2.9s-2.4.4-3.3.9l-.5-1.5c1-.7,2.5-1.1,4.1-1.1,3.9,0,4.8,2.6,4.8,5.1v4.7c0,1.1,0,2.2.2,3h-2.1,0ZM340.2,413.6c-2.5,0-5.3.4-5.3,2.8s1,2.2,2.2,2.2,2.7-1,3-2.1c0-.2.1-.5.1-.7v-2.2h0Z"/>
    <path class="cls-1" d="M346.1,410.9c0-1.3,0-2.4-.1-3.4h2v2h.2c.7-1.2,1.9-2.3,4-2.3s3,1,3.6,2.5h0c.4-.7.9-1.2,1.4-1.6.8-.6,1.6-.9,2.8-.9s4.1,1.1,4.1,5.5v7.4h-2.2v-7.1c0-2.4-.9-3.9-2.7-3.9s-2.3,1-2.7,2.1c-.1.3-.2.7-.2,1.1v7.8h-2.2v-7.5c0-2-.9-3.5-2.6-3.5s-2.5,1.1-2.8,2.3c-.1.3-.2.7-.2,1.1v7.6h-2.2v-9.2h0Z"/>
    <path class="cls-1" d="M373.1,412.2v1.7h-6.4v-1.7h6.4Z"/>
    <path class="cls-1" d="M184,442.1c0-1.3,0-2.4-.1-3.4h2v2h.2c.7-1.2,1.9-2.3,3.9-2.3s3,1,3.6,2.5h0c.4-.7.9-1.2,1.4-1.6.8-.6,1.6-.9,2.8-.9s4.1,1.1,4.1,5.5v7.4h-2.2v-7.1c0-2.4-.9-3.9-2.7-3.9s-2.3,1-2.7,2.1c-.1.3-.2.7-.2,1.1v7.8h-2.2v-7.5c0-2-.9-3.5-2.6-3.5s-2.5,1.1-2.8,2.3c-.1.3-.2.7-.2,1.1v7.6h-2.2v-9.2h0Z"/>
    <path class="cls-1" d="M208.2,435.1c0,.8-.6,1.4-1.5,1.4s-1.4-.6-1.4-1.4.6-1.4,1.4-1.4,1.4.6,1.4,1.4h0ZM205.7,451.2v-12.6h2.3v12.6h-2.3Z"/>
    <path class="cls-1" d="M211.8,442.1c0-1.3,0-2.4-.1-3.4h2v2.1h.2c.6-1.2,2.1-2.4,4.2-2.4s4.4,1,4.4,5.4v7.5h-2.3v-7.2c0-2-.8-3.7-2.9-3.7s-2.7,1.1-3.1,2.3c-.1.3-.2.7-.2,1.1v7.6h-2.3v-9.2Z"/>
    <path class="cls-1" d="M237,438.7c0,.9-.1,1.9-.1,3.5v7.3c0,2.9-.6,4.6-1.8,5.8-1.2,1.1-3,1.5-4.6,1.5s-3.2-.4-4.2-1l.6-1.7c.8.5,2.1,1,3.7,1,2.3,0,4.1-1.2,4.1-4.4v-1.4h0c-.7,1.2-2.1,2.1-4,2.1-3.1,0-5.4-2.6-5.4-6.1s2.8-6.7,5.7-6.7,3.4,1.1,3.9,2.2h0v-1.9h2.1ZM234.7,443.6c0-.4,0-.7-.1-1-.4-1.3-1.5-2.4-3.2-2.4s-3.7,1.9-3.7,4.8,1.2,4.5,3.7,4.5,2.7-.9,3.2-2.3c.1-.4.2-.8.2-1.2v-2.3h0Z"/>
    <path class="cls-1" d="M246.2,442.8c0-1.6,0-2.9-.1-4.1h2.1v2.2h.2c.9-1.5,2.4-2.4,4.5-2.4,3,0,5.3,2.6,5.3,6.4s-2.8,6.8-5.7,6.8-3.1-.7-3.9-2h0v6.8h-2.3v-13.6h0ZM248.5,446.1c0,.3,0,.6.1.9.4,1.6,1.8,2.7,3.4,2.7,2.4,0,3.8-2,3.8-4.9s-1.3-4.7-3.7-4.7-3,1.1-3.5,2.8c0,.3-.2.6-.2.9v2.2h0Z"/>
    <path class="cls-1" d="M268,451.2l-.2-1.6h0c-.7,1-2,1.9-3.9,1.9-2.5,0-3.9-1.8-3.9-3.6,0-3,2.7-4.7,7.6-4.7v-.3c0-1-.3-2.9-2.9-2.9s-2.4.4-3.3.9l-.5-1.5c1-.7,2.5-1.1,4.1-1.1,3.9,0,4.8,2.6,4.8,5.1v4.7c0,1.1,0,2.2.2,3h-2.1,0ZM267.7,444.8c-2.5,0-5.3.4-5.3,2.8s1,2.2,2.2,2.2,2.7-1,3-2.1c0-.2.1-.5.1-.7v-2.2h0Z"/>
    <path class="cls-1" d="M273.6,442.6c0-1.5,0-2.8-.1-3.9h2v2.5h.2c.6-1.7,2-2.8,3.5-2.8s.4,0,.6,0v2.2c-.2,0-.5,0-.8,0-1.6,0-2.8,1.2-3.1,2.9,0,.3-.1.7-.1,1.1v6.7h-2.3v-8.7h0Z"/>
    <path class="cls-1" d="M288.9,451.2l-.2-1.6h0c-.7,1-2,1.9-3.9,1.9-2.5,0-3.9-1.8-3.9-3.6,0-3,2.7-4.7,7.6-4.7v-.3c0-1-.3-2.9-2.9-2.9s-2.4.4-3.3.9l-.5-1.5c1-.7,2.5-1.1,4.1-1.1,3.9,0,4.8,2.6,4.8,5.1v4.7c0,1.1,0,2.2.2,3h-2.1,0ZM288.6,444.8c-2.5,0-5.3.4-5.3,2.8s1,2.2,2.2,2.2,2.7-1,3-2.1c0-.2.1-.5.1-.7v-2.2h0Z"/>
    <path class="cls-1" d="M305.3,432.8v15.2c0,1.1,0,2.4.1,3.2h-2v-2.2h-.1c-.7,1.4-2.2,2.5-4.3,2.5-3,0-5.4-2.6-5.4-6.4,0-4.2,2.6-6.8,5.6-6.8s3.2.9,3.8,1.9h0v-7.5h2.3,0ZM303,443.8c0-.3,0-.7-.1-1-.3-1.5-1.6-2.6-3.3-2.6s-3.8,2.1-3.8,4.9,1.2,4.6,3.7,4.6,2.9-1,3.4-2.7c0-.3.1-.6.1-1v-2.2h0Z"/>
    <path class="cls-1" d="M311.7,435.1c0,.8-.5,1.4-1.5,1.4s-1.4-.6-1.4-1.4.6-1.4,1.4-1.4,1.4.6,1.4,1.4h0ZM309.1,451.2v-12.6h2.3v12.6h-2.3Z"/>
    <path class="cls-1" d="M326.1,438.7c0,.9-.1,1.9-.1,3.5v7.3c0,2.9-.6,4.6-1.8,5.8-1.2,1.1-3,1.5-4.6,1.5s-3.2-.4-4.2-1l.6-1.7c.8.5,2.1,1,3.7,1,2.3,0,4.1-1.2,4.1-4.4v-1.4h0c-.7,1.2-2,2.1-4,2.1-3.1,0-5.4-2.6-5.4-6.1s2.8-6.7,5.7-6.7,3.4,1.1,3.9,2.2h0v-1.9h2.1,0ZM323.7,443.6c0-.4,0-.7-.1-1-.4-1.3-1.5-2.4-3.2-2.4s-3.7,1.9-3.7,4.8,1.2,4.5,3.7,4.5,2.7-.9,3.2-2.3c.1-.4.2-.8.2-1.2v-2.3h0Z"/>
    <path class="cls-1" d="M329.6,442.1c0-1.3,0-2.4-.1-3.4h2v2h.2c.7-1.2,1.9-2.3,4-2.3s3,1,3.6,2.5h0c.4-.7.9-1.2,1.4-1.6.8-.6,1.6-.9,2.8-.9s4.1,1.1,4.1,5.5v7.4h-2.2v-7.1c0-2.4-.9-3.9-2.7-3.9s-2.3,1-2.7,2.1c-.1.3-.2.7-.2,1.1v7.8h-2.2v-7.5c0-2-.9-3.5-2.6-3.5s-2.5,1.1-2.8,2.3c-.1.3-.2.7-.2,1.1v7.6h-2.2v-9.2h0Z"/>
    <path class="cls-1" d="M350.7,440.7c0-1,.6-1.6,1.6-1.6s1.5.7,1.5,1.6c0,.9-.6,1.6-1.6,1.6s-1.5-.7-1.5-1.6ZM350.7,449.9c0-1,.6-1.6,1.6-1.6s1.5.7,1.5,1.6c0,.9-.6,1.6-1.6,1.6s-1.5-.7-1.5-1.6Z"/>
    <path class="cls-1" d="M184.1,465.1c1.1-.2,2.5-.3,4.3-.3s3.9.5,4.9,1.5c1,.8,1.5,2.1,1.5,3.7s-.5,2.8-1.4,3.7c-1.2,1.3-3.1,1.9-5.4,1.9s-1.3,0-1.8-.2v7h-2.3v-17.3h0ZM186.3,473.6c.5.1,1.1.2,1.9.2,2.7,0,4.4-1.3,4.4-3.7s-1.6-3.4-4.1-3.4-1.7,0-2.1.2v6.8h0Z"/>
    <path class="cls-1" d="M204.1,482.4l-.2-1.6h0c-.7,1-2.1,1.9-3.9,1.9-2.6,0-3.9-1.8-3.9-3.6,0-3,2.7-4.7,7.6-4.7v-.3c0-1-.3-2.9-2.9-2.9s-2.4.4-3.3.9l-.5-1.5c1-.7,2.6-1.1,4.1-1.1,3.9,0,4.8,2.6,4.8,5.1v4.7c0,1.1,0,2.2.2,3h-2.1,0ZM203.8,476c-2.5,0-5.3.4-5.3,2.8s1,2.2,2.2,2.2,2.7-1,3-2.1c0-.2.1-.5.1-.7v-2.2h0Z"/>
    <path class="cls-1" d="M209.7,473.8c0-1.5,0-2.8-.1-3.9h2v2.5h.2c.6-1.7,1.9-2.8,3.5-2.8s.4,0,.6,0v2.2c-.2,0-.5,0-.8,0-1.6,0-2.8,1.2-3.1,2.9,0,.3-.1.7-.1,1.1v6.7h-2.3v-8.7h0Z"/>
    <path class="cls-1" d="M225,482.4l-.2-1.6h0c-.7,1-2.1,1.9-3.9,1.9-2.6,0-3.9-1.8-3.9-3.6,0-3,2.7-4.7,7.6-4.7v-.3c0-1-.3-2.9-2.9-2.9s-2.4.4-3.3.9l-.5-1.5c1-.7,2.6-1.1,4.1-1.1,3.9,0,4.8,2.6,4.8,5.1v4.7c0,1.1,0,2.2.2,3h-2.1,0ZM224.7,476c-2.5,0-5.3.4-5.3,2.8s1,2.2,2.2,2.2,2.7-1,3-2.1c0-.2.1-.5.1-.7v-2.2h0Z"/>
    <path class="cls-1" d="M230.6,464h2.3v18.5h-2.3v-18.5Z"/>
    <path class="cls-1" d="M236.7,464h2.3v18.5h-2.3v-18.5Z"/>
    <path class="cls-1" d="M249.8,482.4l-.2-1.6h0c-.7,1-2.1,1.9-3.9,1.9-2.6,0-3.9-1.8-3.9-3.6,0-3,2.7-4.7,7.6-4.7v-.3c0-1-.3-2.9-2.9-2.9s-2.4.4-3.3.9l-.5-1.5c1-.7,2.6-1.1,4.1-1.1,3.9,0,4.8,2.6,4.8,5.1v4.7c0,1.1,0,2.2.2,3h-2.1,0ZM249.5,476c-2.5,0-5.3.4-5.3,2.8s1,2.2,2.2,2.2,2.7-1,3-2.1c0-.2.1-.5.1-.7v-2.2h0Z"/>
    <path class="cls-1" d="M255.4,464h2.3v18.5h-2.3v-18.5Z"/>
    <path class="cls-1" d="M264.1,466.3c0,.8-.5,1.4-1.5,1.4s-1.4-.6-1.4-1.4.6-1.4,1.4-1.4,1.4.6,1.4,1.4h0ZM261.5,482.4v-12.6h2.3v12.6h-2.3Z"/>
    <path class="cls-1" d="M266.2,481.1l5.7-7.4c.5-.7,1.1-1.3,1.6-2h0s-6.8,0-6.8,0v-1.9h9.6v1.4s-5.6,7.3-5.6,7.3c-.5.7-1,1.3-1.6,2h0s7.4,0,7.4,0v1.8h-10.2v-1.3h0Z"/>
    <path class="cls-1" d="M279.8,476.6c0,3.1,2,4.4,4.3,4.4s2.6-.3,3.5-.6l.4,1.6c-.8.4-2.2.8-4.2.8-3.9,0-6.2-2.5-6.2-6.3s2.2-6.8,5.9-6.8,5.2,3.6,5.2,5.9,0,.8,0,1.1h-8.8,0ZM286.5,474.9c0-1.5-.6-3.7-3.2-3.7s-3.3,2.1-3.5,3.7h6.7Z"/>
    <path class="cls-1" d="M299.6,466.3c0,.8-.5,1.4-1.5,1.4s-1.4-.6-1.4-1.4.6-1.4,1.4-1.4,1.4.6,1.4,1.4h0ZM297.1,482.4v-12.6h2.3v12.6h-2.3Z"/>
    <path class="cls-1" d="M305.9,466.2v3.6h3.3v1.7h-3.3v6.8c0,1.6.4,2.4,1.7,2.4s1,0,1.3-.2v1.7c-.3.2-1,.3-1.9.3s-1.9-.3-2.5-1c-.6-.7-.9-1.8-.9-3.3v-6.9h-2v-1.7h2v-3l2.2-.6h0Z"/>
  </g>
  <line class="cls-7" x1="274" y1="501.1" x2="274" y2="577.1"/>
  <line class="cls-7" x1="120" y1="577.1" x2="419" y2="577.1"/>
  <g>
    <line class="cls-7" x1="419" y1="616.9" x2="419" y2="575.6"/>
    <path class="cls-1" d="M419,629.6c2.2-6,6-13.4,10-18l-10,3.6-10-3.6c4,4.6,7.8,12,10,18Z"/>
  </g>
  <g>
    <line class="cls-7" x1="120" y1="616.9" x2="120" y2="575.6"/>
    <path class="cls-1" d="M120,629.6c2.2-6,6-13.4,10-18l-10,3.6-10-3.6c4,4.6,7.8,12,10,18Z"/>
  </g>
  <g>
    <path class="cls-1" d="M64.5,663.7v1.7h-6.4v-1.7h6.4Z"/>
    <path class="cls-1" d="M77.2,663.1c0-1.6,0-2.9,0-4.1h2.1v2.2h.2c.9-1.5,2.4-2.4,4.5-2.4,3,0,5.3,2.6,5.3,6.4s-2.8,6.8-5.7,6.8-3.1-.7-3.9-2h0v6.8h-2.3v-13.6h0ZM79.4,666.4c0,.3,0,.7,0,.9.4,1.6,1.8,2.7,3.4,2.7,2.4,0,3.8-2,3.8-4.9s-1.3-4.7-3.7-4.7-3,1.1-3.5,2.8c0,.3-.2.6-.2.9v2.2h0Z"/>
    <path class="cls-1" d="M98.9,671.5l-.2-1.6h0c-.7,1-2.1,1.9-3.8,1.9-2.6,0-3.8-1.8-3.8-3.6,0-3,2.7-4.7,7.6-4.7v-.3c0-1-.3-2.9-2.9-2.9s-2.4.4-3.3.9l-.5-1.5c1-.7,2.6-1.1,4.1-1.1,3.8,0,4.8,2.6,4.8,5.2v4.7c0,1.1,0,2.2.2,3h-2.1,0ZM98.6,665.1c-2.5,0-5.3.4-5.3,2.8s1,2.2,2.2,2.2,2.7-1,3-2.1c0-.2.1-.5.1-.7v-2.2h0Z"/>
    <path class="cls-1" d="M104.5,662.9c0-1.5,0-2.8,0-3.9h2v2.5h.2c.6-1.7,1.9-2.8,3.5-2.8s.4,0,.7,0v2.2c-.2,0-.5,0-.8,0-1.6,0-2.8,1.2-3.1,2.9,0,.3,0,.7,0,1.1v6.7h-2.3s0-8.7,0-8.7Z"/>
    <path class="cls-1" d="M114,671.5v-10.8h-1.8v-1.7h1.8v-.6c0-1.8.4-3.4,1.5-4.4.9-.8,2-1.2,3.1-1.2s1.5.2,1.9.4l-.3,1.8c-.3-.2-.8-.3-1.5-.3-1.9,0-2.4,1.7-2.4,3.6v.7h3v1.7h-3v10.8h-2.3Z"/>
    <path class="cls-1" d="M132.4,665.2c0,4.7-3.2,6.7-6.3,6.7s-6-2.5-6-6.5,2.8-6.7,6.2-6.7,6.1,2.6,6.1,6.5ZM122.4,665.3c0,2.8,1.6,4.8,3.8,4.8s3.8-2,3.8-4.9-1.1-4.8-3.8-4.8-3.9,2.5-3.9,4.9Z"/>
    <path class="cls-1" d="M135.3,662.9c0-1.5,0-2.8-.1-3.9h2v2.5h.2c.6-1.7,1.9-2.8,3.5-2.8s.4,0,.6,0v2.2c-.2,0-.5,0-.8,0-1.6,0-2.8,1.2-3.1,2.9,0,.3-.1.7-.1,1.1v6.7h-2.3v-8.7h0Z"/>
    <path class="cls-1" d="M64.5,694.9v1.7h-6.4v-1.7h6.4Z"/>
    <path class="cls-1" d="M77.2,694.3c0-1.6,0-2.9,0-4.1h2.1v2.2h.2c.9-1.5,2.4-2.4,4.5-2.4,3,0,5.3,2.6,5.3,6.4s-2.8,6.8-5.7,6.8-3.1-.7-3.9-2h0v6.8h-2.3v-13.6h0ZM79.4,697.6c0,.3,0,.7,0,.9.4,1.6,1.8,2.7,3.4,2.7,2.4,0,3.8-2,3.8-4.9s-1.3-4.7-3.7-4.7-3,1.1-3.5,2.8c0,.3-.2.6-.2.9v2.2h0Z"/>
    <path class="cls-1" d="M98.9,702.8l-.2-1.6h0c-.7,1-2.1,1.9-3.8,1.9-2.6,0-3.8-1.8-3.8-3.6,0-3,2.7-4.7,7.6-4.7v-.3c0-1-.3-2.9-2.9-2.9s-2.4.4-3.3.9l-.5-1.5c1-.7,2.6-1.1,4.1-1.1,3.8,0,4.8,2.6,4.8,5.2v4.7c0,1.1,0,2.2.2,3h-2.1,0ZM98.6,696.3c-2.5,0-5.3.4-5.3,2.8s1,2.2,2.2,2.2,2.7-1,3-2.1c0-.2.1-.5.1-.7v-2.2h0Z"/>
    <path class="cls-1" d="M104.5,694.1c0-1.5,0-2.8,0-3.9h2v2.5h.2c.6-1.7,1.9-2.8,3.5-2.8s.4,0,.7,0v2.2c-.2,0-.5,0-.8,0-1.6,0-2.8,1.2-3.1,2.9,0,.3,0,.7,0,1.1v6.7h-2.3s0-8.7,0-8.7Z"/>
    <path class="cls-1" d="M114,702.8v-10.8h-1.8v-1.7h1.8v-.6c0-1.8.4-3.4,1.5-4.4.9-.8,2-1.2,3.1-1.2s1.5.2,1.9.4l-.3,1.8c-.3-.2-.8-.3-1.5-.3-1.9,0-2.4,1.7-2.4,3.6v.7h3v1.7h-3v10.8h-2.3Z"/>
    <path class="cls-1" d="M122.3,696.9c0,3.1,2,4.4,4.3,4.4s2.6-.3,3.5-.7l.4,1.6c-.8.4-2.2.8-4.2.8-3.9,0-6.2-2.5-6.2-6.3s2.2-6.8,5.9-6.8,5.2,3.6,5.2,5.9,0,.8,0,1.1h-8.8,0ZM129,695.2c0-1.5-.6-3.7-3.2-3.7s-3.3,2.1-3.5,3.7h6.7Z"/>
    <path class="cls-1" d="M134.9,690.2l2.5,7.1c.4,1.1.8,2.2,1,3.2h0c.3-1,.6-2.1,1.1-3.2l2.4-7.1h2.4l-4.9,12.6h-2.2l-4.8-12.6h2.4,0Z"/>
    <path class="cls-1" d="M153.4,702.8l-.2-1.6h0c-.7,1-2.1,1.9-3.9,1.9-2.6,0-3.9-1.8-3.9-3.6,0-3,2.7-4.7,7.6-4.7v-.3c0-1-.3-2.9-2.9-2.9s-2.4.4-3.3.9l-.5-1.5c1-.7,2.6-1.1,4.1-1.1,3.9,0,4.8,2.6,4.8,5.2v4.7c0,1.1,0,2.2.2,3h-2.1,0ZM153.1,696.3c-2.5,0-5.3.4-5.3,2.8s1,2.2,2.2,2.2,2.7-1,3-2.1c0-.2.1-.5.1-.7v-2.2h0Z"/>
    <path class="cls-1" d="M159,684.3h2.3v18.5h-2.3v-18.5Z"/>
    <path class="cls-1" d="M64.5,726.1v1.7h-6.4v-1.7h6.4Z"/>
    <path class="cls-1" d="M76.9,731.6c.7.4,1.9.9,3,.9,1.7,0,2.4-.8,2.4-1.9s-.7-1.7-2.3-2.3c-2.3-.8-3.3-2-3.3-3.6s1.6-3.7,4.3-3.7,2.4.4,3.1.8l-.6,1.7c-.5-.3-1.4-.7-2.6-.7s-2.1.8-2.1,1.7.8,1.5,2.4,2.1c2.2.8,3.3,1.9,3.3,3.8s-1.7,3.8-4.7,3.8-2.7-.3-3.5-.9l.6-1.7h0Z"/>
    <path class="cls-1" d="M87.5,725.5c0-1.6,0-2.9,0-4.1h2.1v2.2h.2c.9-1.5,2.4-2.4,4.5-2.4,3,0,5.3,2.6,5.3,6.4s-2.8,6.8-5.7,6.8-3.1-.7-3.9-2h0v6.8h-2.3v-13.6h0ZM89.7,728.8c0,.3,0,.7,0,.9.4,1.6,1.8,2.7,3.4,2.7,2.4,0,3.8-2,3.8-4.9s-1.3-4.7-3.7-4.7-3,1.1-3.5,2.8c0,.3-.2.6-.2.9v2.2h0Z"/>
    <path class="cls-1" d="M102.3,724.8c0-1.3,0-2.4,0-3.4h2v2h.2c.7-1.2,1.9-2.3,3.9-2.3s3,1,3.6,2.5h0c.4-.7.9-1.2,1.4-1.6.8-.6,1.6-.9,2.8-.9s4.1,1.1,4.1,5.5v7.4h-2.2v-7.1c0-2.4-.9-3.9-2.7-3.9s-2.3,1-2.7,2.1c0,.3-.2.7-.2,1.1v7.8h-2.2v-7.5c0-2-.9-3.5-2.6-3.5s-2.5,1.1-2.8,2.3c-.1.3-.2.7-.2,1.1v7.6h-2.2v-9.2h0Z"/>
    <path class="cls-1" d="M134.8,715.5v15.2c0,1.1,0,2.4.1,3.2h-2.1v-2.2h-.2c-.7,1.4-2.2,2.5-4.3,2.5-3,0-5.4-2.6-5.4-6.4,0-4.2,2.6-6.8,5.6-6.8s3.2.9,3.8,1.9h0v-7.5h2.3,0ZM132.5,726.5c0-.3,0-.7-.1-1-.3-1.5-1.6-2.7-3.3-2.7s-3.8,2.1-3.8,4.9,1.2,4.7,3.7,4.7,2.9-1,3.4-2.7c0-.3.1-.6.1-1v-2.2Z"/>
  </g>
  <rect class="cls-7" x="319" y="630.8" width="200" height="136.9"/>
  <g>
    <path class="cls-1" d="M358.9,696.6v1.7h-6.4v-1.7h6.4Z"/>
    <path class="cls-1" d="M382.4,691.9c0,.9-.1,1.9-.1,3.5v7.3c0,2.9-.6,4.7-1.8,5.8-1.2,1.1-3,1.5-4.6,1.5s-3.2-.4-4.2-1l.6-1.7c.8.5,2.1,1,3.7,1,2.3,0,4.1-1.2,4.1-4.4v-1.4h0c-.7,1.2-2,2.1-4,2.1-3.1,0-5.4-2.7-5.4-6.1s2.8-6.7,5.7-6.7,3.4,1.1,3.9,2.2h0v-1.9h2.1,0ZM380.1,696.9c0-.4,0-.7-.1-1-.4-1.3-1.5-2.4-3.2-2.4s-3.7,1.8-3.7,4.8,1.2,4.5,3.7,4.5,2.7-.9,3.2-2.3c.1-.4.2-.8.2-1.2v-2.3h0Z"/>
    <path class="cls-1" d="M386,696c0-1.6,0-2.9-.1-4.1h2v2.2h.1c.9-1.5,2.4-2.4,4.5-2.4,3,0,5.3,2.6,5.3,6.4s-2.8,6.8-5.7,6.8-3.1-.7-3.9-2h0v6.8h-2.3v-13.6h0ZM388.2,699.4c0,.3,0,.7.1.9.4,1.6,1.8,2.7,3.4,2.7,2.4,0,3.8-2,3.8-4.9s-1.3-4.7-3.7-4.7-3,1.1-3.5,2.8c0,.3-.2.6-.2.9v2.2h0Z"/>
    <path class="cls-1" d="M411.3,701c0,1.3,0,2.4.1,3.4h-2v-2h-.2c-.6,1-1.9,2.3-4.2,2.3s-4.3-1.1-4.3-5.5v-7.4h2.3v7c0,2.4.7,4,2.8,4s2.6-1.1,3-2.1c.1-.3.2-.8.2-1.2v-7.7h2.3v9.2h0Z"/>
    <path class="cls-1" d="M418,699l-1.8,5.5h-2.3l6-17.5h2.7l6,17.5h-2.4l-1.9-5.5h-6.2ZM423.7,697.2l-1.7-5c-.4-1.1-.6-2.2-.9-3.2h0c-.3,1-.5,2.1-.9,3.2l-1.7,5.1h5.3Z"/>
    <path class="cls-1" d="M430.9,695.8c0-1.5,0-2.8-.1-3.9h2v2.5h.2c.6-1.7,2-2.8,3.5-2.8s.4,0,.6,0v2.2c-.2,0-.5,0-.8,0-1.6,0-2.8,1.2-3.1,2.9,0,.3-.1.7-.1,1.1v6.7h-2.3v-8.7h0Z"/>
    <path class="cls-1" d="M439.5,695.8c0-1.5,0-2.8-.1-3.9h2v2.5h.2c.6-1.7,2-2.8,3.5-2.8s.4,0,.6,0v2.2c-.2,0-.5,0-.8,0-1.6,0-2.8,1.2-3.1,2.9,0,.3-.1.7-.1,1.1v6.7h-2.3v-8.7h0Z"/>
    <path class="cls-1" d="M454.9,704.5l-.2-1.6h0c-.7,1-2,1.9-3.9,1.9-2.5,0-3.9-1.8-3.9-3.6,0-3,2.7-4.7,7.6-4.7v-.3c0-1-.3-2.9-2.9-2.9s-2.4.4-3.3.9l-.5-1.5c1-.7,2.5-1.1,4.1-1.1,3.9,0,4.8,2.6,4.8,5.2v4.7c0,1.1,0,2.2.2,3h-2.1,0ZM454.5,698.1c-2.5,0-5.3.4-5.3,2.8s1,2.2,2.2,2.2,2.7-1,3-2.1c0-.2.1-.5.1-.7v-2.2h0Z"/>
    <path class="cls-1" d="M461,691.9l2.8,7.4c.3.8.6,1.8.8,2.6h0c.2-.8.5-1.7.8-2.6l2.5-7.4h2.4l-3.4,9c-1.6,4.3-2.8,6.5-4.3,7.9-1.1,1-2.2,1.4-2.8,1.5l-.6-1.9c.6-.2,1.3-.5,2-1.1.6-.5,1.4-1.4,1.9-2.5.1-.2.2-.4.2-.5s0-.3-.2-.6l-4.6-11.6h2.5,0Z"/>
  </g>
  <line class="cls-7" x1="120" y1="823.8" x2="419" y2="823.8"/>
  <g>
    <line class="cls-7" x1="419" y1="810" x2="419" y2="768.7"/>
    <path class="cls-1" d="M419,822.7c2.2-6,6-13.4,10-18l-10,3.6-10-3.6c4,4.6,7.8,12,10,18Z"/>
  </g>
  <g>
    <line class="cls-7" x1="120" y1="810" x2="120" y2="768.7"/>
    <path class="cls-1" d="M120,822.7c2.2-6,6-13.4,10-18l-10,3.6-10-3.6c4,4.6,7.8,12,10,18Z"/>
  </g>
  <line class="cls-7" x1="274" y1="824.8" x2="274" y2="873.8"/>
  <line class="cls-7" x1="704.3" y1="873.8" x2="274" y2="873.8"/>
  <g>
    <ellipse class="cls-6" cx="969.3" cy="239.9" rx="124.5" ry="74"/>
    <line class="cls-7" x1="969.3" y1="164.4" x2="969.3" y2="86.6"/>
    <rect class="cls-7" x="723.3" y="423.5" width="193.1" height="110.1"/>
    <g class="cls-5">
      <text class="cls-3" transform="translate(879 217.5)"><tspan x="0" y="0">Does your data </tspan></text>
      <text class="cls-3" transform="translate(879 248.7)"><tspan x="0" y="0">fit in the memory </tspan></text>
      <text class="cls-3" transform="translate(879 279.9)"><tspan x="0" y="0">of the machine?</tspan></text>
    </g>
    <g>
      <path class="cls-1" d="M752.1,467.7v1.7h-6.4v-1.7h6.4Z"/>
      <path class="cls-1" d="M775.7,457.1v15.2c0,1.1,0,2.4,0,3.2h-2v-2.2h-.1c-.7,1.4-2.2,2.5-4.3,2.5-3,0-5.4-2.6-5.4-6.4,0-4.2,2.6-6.8,5.6-6.8s3.2.9,3.8,1.9h0v-7.5h2.3,0ZM773.4,468.1c0-.3,0-.7,0-1-.3-1.5-1.6-2.6-3.3-2.6s-3.8,2.1-3.8,4.9,1.2,4.6,3.7,4.6,2.9-1,3.3-2.7c0-.3,0-.6,0-1v-2.2h0Z"/>
      <path class="cls-1" d="M782,459.5c0,.8-.5,1.4-1.5,1.4s-1.4-.6-1.4-1.4.6-1.4,1.4-1.4,1.4.6,1.4,1.4h0ZM779.5,475.6v-12.6h2.3v12.6h-2.3Z"/>
      <path class="cls-1" d="M785.2,473.3c.7.4,1.9.9,3,.9,1.7,0,2.4-.8,2.4-1.9s-.7-1.7-2.3-2.3c-2.3-.8-3.3-2-3.3-3.6s1.6-3.7,4.3-3.7,2.4.4,3.1.8l-.6,1.7c-.5-.3-1.4-.7-2.6-.7s-2.1.8-2.1,1.7.8,1.5,2.4,2.1c2.2.8,3.3,1.9,3.3,3.8s-1.7,3.8-4.7,3.8-2.7-.3-3.5-.9l.6-1.7h0Z"/>
      <path class="cls-1" d="M798.6,459.4v3.6h3.3v1.7h-3.3v6.8c0,1.6.4,2.4,1.7,2.4s1,0,1.3-.2v1.7c-.3.2-1,.3-1.9.3s-1.9-.3-2.5-1c-.7-.7-.9-1.8-.9-3.3v-6.9h-2v-1.7h2v-3l2.2-.6h0Z"/>
      <path class="cls-1" d="M804.4,466.9c0-1.5,0-2.8,0-3.9h2v2.5h.2c.6-1.7,2-2.8,3.5-2.8s.4,0,.7,0v2.2c-.2,0-.5,0-.8,0-1.6,0-2.8,1.2-3.1,2.9,0,.3,0,.7,0,1.1v6.7h-2.3v-8.7Z"/>
      <path class="cls-1" d="M815.6,459.5c0,.8-.5,1.4-1.5,1.4s-1.4-.6-1.4-1.4.6-1.4,1.4-1.4,1.4.6,1.4,1.4h0ZM813,475.6v-12.6h2.3v12.6h-2.3Z"/>
      <path class="cls-1" d="M819,475.6c0-.9,0-2.1,0-3.2v-15.2h2.3v7.9h0c.8-1.4,2.3-2.3,4.3-2.3,3.1,0,5.3,2.6,5.3,6.4,0,4.5-2.8,6.7-5.6,6.7s-3.3-.7-4.2-2.4h0v2.1h-2.1,0ZM821.4,470.5c0,.3,0,.6,0,.8.4,1.6,1.8,2.7,3.4,2.7,2.4,0,3.8-2,3.8-4.8s-1.3-4.7-3.7-4.7-3,1.1-3.5,2.8c0,.3-.1.6-.1.9v2.3Z"/>
      <path class="cls-1" d="M844.5,472.2c0,1.3,0,2.4,0,3.4h-2v-2h-.2c-.6,1-1.9,2.3-4.2,2.3s-4.3-1.1-4.3-5.5v-7.4h2.3v7c0,2.4.7,4,2.8,4s2.6-1.1,3-2.1c.1-.3.2-.8.2-1.2v-7.7h2.3v9.1h0Z"/>
      <path class="cls-1" d="M851,459.4v3.6h3.3v1.7h-3.3v6.8c0,1.6.4,2.4,1.7,2.4s1,0,1.3-.2v1.7c-.3.2-1,.3-1.9.3s-1.9-.3-2.5-1c-.7-.7-.9-1.8-.9-3.3v-6.9h-2v-1.7h2v-3l2.2-.6h0Z"/>
      <path class="cls-1" d="M858,469.7c0,3.1,2,4.4,4.3,4.4s2.6-.3,3.5-.6l.4,1.6c-.8.4-2.2.8-4.2.8-3.9,0-6.2-2.5-6.2-6.3s2.2-6.8,5.9-6.8,5.2,3.6,5.2,5.9,0,.8,0,1.1h-8.8,0ZM864.7,468.1c0-1.5-.6-3.7-3.2-3.7s-3.3,2.1-3.5,3.7h6.7Z"/>
      <path class="cls-1" d="M880.6,457.1v15.2c0,1.1,0,2.4,0,3.2h-2v-2.2h-.1c-.7,1.4-2.2,2.5-4.3,2.5-3,0-5.4-2.6-5.4-6.4,0-4.2,2.6-6.8,5.6-6.8s3.2.9,3.8,1.9h0v-7.5h2.3,0ZM878.3,468.1c0-.3,0-.7,0-1-.3-1.5-1.6-2.6-3.3-2.6s-3.8,2.1-3.8,4.9,1.2,4.6,3.7,4.6,2.9-1,3.3-2.7c0-.3,0-.6,0-1v-2.2h0Z"/>
      <path class="cls-1" d="M771.8,506.8l-.2-1.6h0c-.7,1-2,1.9-3.8,1.9-2.5,0-3.8-1.8-3.8-3.6,0-3,2.7-4.7,7.6-4.7v-.3c0-1-.3-2.9-2.9-2.9s-2.4.4-3.3.9l-.5-1.5c1-.7,2.5-1.1,4.1-1.1,3.8,0,4.8,2.6,4.8,5.1v4.7c0,1.1,0,2.2.2,3h-2.1,0ZM771.4,500.4c-2.5,0-5.3.4-5.3,2.8s1,2.2,2.2,2.2,2.7-1,3-2.1c0-.2.1-.5.1-.7v-2.2h0Z"/>
      <path class="cls-1" d="M777.3,498.1c0-1.5,0-2.8,0-3.9h2v2.5h.2c.6-1.7,2-2.8,3.5-2.8s.4,0,.7,0v2.2c-.2,0-.5,0-.8,0-1.6,0-2.8,1.2-3.1,2.9,0,.3,0,.7,0,1.1v6.7h-2.3v-8.7Z"/>
      <path class="cls-1" d="M785.9,498.1c0-1.5,0-2.8,0-3.9h2v2.5h.2c.6-1.7,2-2.8,3.5-2.8s.4,0,.7,0v2.2c-.2,0-.5,0-.8,0-1.6,0-2.8,1.2-3.1,2.9,0,.3,0,.7,0,1.1v6.7h-2.3v-8.7Z"/>
      <path class="cls-1" d="M801.3,506.8l-.2-1.6h0c-.7,1-2,1.9-3.8,1.9-2.5,0-3.8-1.8-3.8-3.6,0-3,2.7-4.7,7.6-4.7v-.3c0-1-.3-2.9-2.9-2.9s-2.4.4-3.3.9l-.5-1.5c1-.7,2.5-1.1,4.1-1.1,3.8,0,4.8,2.6,4.8,5.1v4.7c0,1.1,0,2.2.2,3h-2.1,0ZM800.9,500.4c-2.5,0-5.3.4-5.3,2.8s1,2.2,2.2,2.2,2.7-1,3-2.1c0-.2.1-.5.1-.7v-2.2h0Z"/>
      <path class="cls-1" d="M807.5,494.2l2.8,7.4c.3.8.6,1.8.8,2.6h0c.2-.8.5-1.7.8-2.6l2.5-7.4h2.4l-3.4,9c-1.6,4.3-2.8,6.5-4.3,7.9-1.1,1-2.2,1.4-2.8,1.5l-.6-1.9c.6-.2,1.3-.5,2-1.1.6-.5,1.4-1.4,1.9-2.5,0-.2.2-.4.2-.5s0-.3-.2-.6l-4.7-11.6h2.5,0Z"/>
      <path class="cls-1" d="M818.4,504.5c.7.4,1.9.9,3,.9,1.7,0,2.4-.8,2.4-1.9s-.7-1.7-2.3-2.3c-2.3-.8-3.3-2-3.3-3.6s1.6-3.7,4.3-3.7,2.4.4,3.1.8l-.6,1.7c-.5-.3-1.4-.7-2.6-.7s-2.1.8-2.1,1.7.8,1.5,2.4,2.1c2.2.8,3.3,1.9,3.3,3.8s-1.7,3.8-4.7,3.8-2.7-.3-3.5-.9l.6-1.7h0Z"/>
    </g>
    <rect class="cls-7" x="1022.3" y="423.5" width="193.1" height="110.1"/>
    <g>
      <path class="cls-1" d="M1054.7,481.2v1.7h-6.4v-1.7h6.4Z"/>
      <path class="cls-1" d="M1070.1,472.9v3.6h3.3v1.7h-3.3v6.8c0,1.6.4,2.4,1.7,2.4s1,0,1.3-.2v1.7c-.3.2-1,.3-1.9.3s-1.9-.3-2.5-1c-.7-.7-.9-1.8-.9-3.3v-6.9h-1.9v-1.7h1.9v-3l2.2-.6h0Z"/>
      <path class="cls-1" d="M1082.9,489.1l-.2-1.6h0c-.7,1-2.1,1.9-3.8,1.9-2.6,0-3.8-1.8-3.8-3.6,0-3,2.7-4.7,7.6-4.7v-.3c0-1-.3-2.9-2.9-2.9s-2.4.4-3.3.9l-.5-1.5c1-.7,2.6-1.1,4.1-1.1,3.8,0,4.8,2.6,4.8,5.1v4.7c0,1.1,0,2.2.2,3h-2.1,0ZM1082.6,482.7c-2.5,0-5.3.4-5.3,2.8s1,2.2,2.2,2.2,2.7-1,3-2.1c0-.2.1-.5.1-.7v-2.2h0Z"/>
      <path class="cls-1" d="M1088.5,470.6h2.3v18.5h-2.3v-18.5Z"/>
      <path class="cls-1" d="M1094.6,470.6h2.3v18.5h-2.3v-18.5Z"/>
      <path class="cls-1" d="M1113.2,489.1l-.2-1.6h0c-.7,1-2.1,1.9-3.8,1.9-2.6,0-3.8-1.8-3.8-3.6,0-3,2.7-4.7,7.6-4.7v-.3c0-1-.3-2.9-2.9-2.9s-2.4.4-3.3.9l-.5-1.5c1-.7,2.6-1.1,4.1-1.1,3.8,0,4.8,2.6,4.8,5.1v4.7c0,1.1,0,2.2.2,3h-2.1,0ZM1112.9,482.7c-2.5,0-5.3.4-5.3,2.8s1,2.2,2.2,2.2,2.7-1,3-2.1c0-.2.1-.5.1-.7v-2.2h0Z"/>
      <path class="cls-1" d="M1118.8,480.4c0-1.5,0-2.8,0-3.9h2v2.5h.2c.6-1.7,1.9-2.8,3.5-2.8s.4,0,.7,0v2.2c-.2,0-.5,0-.8,0-1.6,0-2.8,1.2-3.1,2.9,0,.3,0,.7,0,1.1v6.7h-2.3v-8.7Z"/>
      <path class="cls-1" d="M1127.4,480.4c0-1.5,0-2.8,0-3.9h2v2.5h.2c.6-1.7,1.9-2.8,3.5-2.8s.4,0,.7,0v2.2c-.2,0-.5,0-.8,0-1.6,0-2.8,1.2-3.1,2.9,0,.3,0,.7,0,1.1v6.7h-2.3v-8.7Z"/>
      <path class="cls-1" d="M1142.8,489.1l-.2-1.6h0c-.7,1-2.1,1.9-3.8,1.9-2.6,0-3.8-1.8-3.8-3.6,0-3,2.7-4.7,7.6-4.7v-.3c0-1-.3-2.9-2.9-2.9s-2.4.4-3.3.9l-.5-1.5c1-.7,2.6-1.1,4.1-1.1,3.8,0,4.8,2.6,4.8,5.1v4.7c0,1.1,0,2.2.2,3h-2.1,0ZM1142.4,482.7c-2.5,0-5.3.4-5.3,2.8s1,2.2,2.2,2.2,2.7-1,3-2.1c0-.2.1-.5.1-.7v-2.2h0Z"/>
      <path class="cls-1" d="M1148.9,476.5l2.8,7.4c.3.8.6,1.8.8,2.6h0c.2-.8.5-1.7.8-2.6l2.5-7.4h2.4l-3.4,9c-1.6,4.3-2.8,6.5-4.3,7.9-1.1,1-2.2,1.4-2.8,1.5l-.6-1.9c.6-.2,1.3-.5,2-1.1.6-.5,1.4-1.4,1.9-2.5,0-.2.2-.4.2-.5s0-.3-.2-.6l-4.7-11.6h2.5,0Z"/>
      <path class="cls-1" d="M1159.9,486.8c.7.4,1.9.9,3,.9,1.7,0,2.4-.8,2.4-1.9s-.7-1.7-2.3-2.3c-2.3-.8-3.3-2-3.3-3.6s1.6-3.7,4.3-3.7,2.4.4,3.1.8l-.6,1.7c-.5-.3-1.4-.7-2.6-.7s-2.1.8-2.1,1.7.8,1.5,2.4,2.1c2.2.8,3.3,1.9,3.3,3.8s-1.7,3.8-4.7,3.8-2.7-.3-3.5-.9l.6-1.7h0Z"/>
    </g>
    <line class="cls-7" x1="969.3" y1="313.6" x2="969.3" y2="369.1"/>
    <line class="cls-7" x1="819.8" y1="369.1" x2="1118.8" y2="369.1"/>
    <g>
      <line class="cls-7" x1="819.8" y1="409" x2="819.8" y2="367.6"/>
      <path class="cls-1" d="M819.8,421.6c2.2-6,6-13.4,10-18l-10,3.6-10-3.6c4,4.6,7.8,12,10,18Z"/>
    </g>
    <g>
      <line class="cls-7" x1="1118.8" y1="409" x2="1118.8" y2="367.6"/>
      <path class="cls-1" d="M1118.8,421.6c2.2-6,6-13.4,10-18l-10,3.6-10-3.6c4,4.6,7.8,12,10,18Z"/>
    </g>
    <g>
      <line class="cls-7" x1="819.8" y1="575" x2="819.8" y2="533.7"/>
      <path class="cls-1" d="M819.8,587.7c2.2-6,6-13.4,10-18l-10,3.6-10-3.6c4,4.6,7.8,12,10,18Z"/>
    </g>
    <g>
      <line class="cls-7" x1="1118.8" y1="575" x2="1118.8" y2="533.7"/>
      <path class="cls-1" d="M1118.8,587.7c2.2-6,6-13.4,10-18l-10,3.6-10-3.6c4,4.6,7.8,12,10,18Z"/>
    </g>
    <line class="cls-7" x1="819.8" y1="587.7" x2="1118.8" y2="587.7"/>
  </g>
  <line class="cls-7" x1="969.3" y1="587.7" x2="969.3" y2="658.8"/>
  <g class="cls-5">
    <text class="cls-3" transform="translate(618 760.7)"><tspan x="0" y="0">Do you want to </tspan></text>
    <text class="cls-3" transform="translate(618 791.9)"><tspan x="0" y="0">offload to cluster </tspan></text>
    <text class="cls-3" transform="translate(618 823.1)"><tspan x="0" y="0">or cloud?</tspan></text>
  </g>
  <line class="cls-7" x1="697.4" y1="658.8" x2="969.3" y2="658.8"/>
  <line class="cls-7" x1="704.3" y1="858.2" x2="704.3" y2="875.3"/>
  <g>
    <line class="cls-7" x1="696.9" y1="657.3" x2="697.3" y2="695.4"/>
    <path class="cls-1" d="M697.4,708.1c-2.3-5.9-6.1-13.3-10.2-17.8l10,3.5,9.9-3.7c-4,4.6-7.7,12.1-9.8,18Z"/>
  </g>
  <line class="cls-2" x1="821.9" y1="787.8" x2="910.3" y2="787.8"/>
  <line class="cls-2" x1="821.9" y1="783.4" x2="910.3" y2="783.4"/>
  <g>
    <line class="cls-7" x1="821.9" y1="787.8" x2="868" y2="787.8"/>
    <path class="cls-1" d="M880.7,787.8c-6,2.2-13.4,6-18,10l3.6-10-3.6-10c4.6,4,12,7.8,18,10Z"/>
  </g>
  <rect class="cls-7" x="883.4" y="750.7" width="149.7" height="74.1"/>
  <g class="cls-5">
    <text class="cls-3" transform="translate(930.1 795.8)"><tspan x="0" y="0">batch</tspan></text>
  </g>
  <g>
    <line class="cls-7" x1="1033.1" y1="787.8" x2="1079.2" y2="787.8"/>
    <path class="cls-1" d="M1091.9,787.8c-6,2.2-13.4,6-17.9,10l3.6-10-3.6-10c4.6,4,12,7.8,17.9,10Z"/>
  </g>
  <polygon class="cls-7" points="1093 744.8 1093 830.8 1167.6 873.9 1242.1 830.8 1242.1 744.8 1167.6 701.7 1093 744.8"/>
  <g class="cls-5">
    <text class="cls-3" transform="translate(1127.4 795.4)"><tspan x="0" y="0">Results</tspan></text>
  </g>
  <g class="cls-5">
    <text class="cls-3" transform="translate(284.4 72)"><tspan x="0" y="0">Faster process</tspan></text>
    <text class="cls-3" transform="translate(438.4 72)"><tspan x="0" y="0">-</tspan></text>
  </g>
  <g class="cls-5">
    <text class="cls-3" transform="translate(813.9 76.2)"><tspan x="0" y="0">Big data?</tspan></text>
  </g>
  <g class="cls-5">
    <text class="cls-4" transform="translate(532.2 201)"><tspan x="0" y="0">Assuming this code gives </tspan></text>
    <text class="cls-4" transform="translate(532.2 226.2)"><tspan x="0" y="0">you the correct results</tspan></text>
  </g>
  <g class="cls-5">
    <text class="cls-3" transform="translate(164.2 564.1)"><tspan x="0" y="0">CPU?</tspan></text>
  </g>
  <g class="cls-5">
    <text class="cls-3" transform="translate(319.7 564.1)"><tspan x="0" y="0">GPU?</tspan></text>
  </g>
  <g class="cls-5">
    <text class="cls-3" transform="translate(870.8 357.8)"><tspan x="0" y="0">Yes</tspan></text>
  </g>
  <g class="cls-5">
    <text class="cls-3" transform="translate(1031.9 357.8)"><tspan x="0" y="0">No</tspan></text>
  </g>
</svg>